<svg width="16.000000" height="16.000000" viewBox="0 0 16 16" fill="none" xmlns="http://www.w3.org/2000/svg" xmlns:xlink="http://www.w3.org/1999/xlink">
	<defs>
		<clipPath id="clip2_225">
			<rect id="sort-alphabetical-ascending" rx="-0.500000" width="15.000000" height="15.000000" transform="translate(0.500000 0.500000)" fill="white" fill-opacity="0"/>
		</clipPath>
	</defs>
	<rect id="sort-alphabetical-ascending" rx="-0.500000" width="15.000000" height="15.000000" transform="translate(0.500000 0.500000)" fill="#FFFFFF" fill-opacity="0"/>
	<g clip-path="url(#clip2_225)">
		<path id="Vector" d="M1.33 11.33L3.33 11.33L3.33 2L4.66 2L4.66 11.33L6.66 11.33L4 14L1.33 11.33ZM9.33 2L10.66 2C11.4 2 12 2.59 12 3.33L12 7.33L10.66 7.33L10.66 6L9.33 6L9.33 7.33L8 7.33L8 3.33C8 2.59 8.59 2 9.33 2ZM9.33 4.66L10.66 4.66L10.66 3.33L9.33 3.33L9.33 4.66ZM12 10L12 8.66L8 8.66L8 10L10.22 10L8 12.66L8 14L12 14L12 12.66L9.78 12.66L12 10Z" fill="#333333" fill-opacity="1.000000" fill-rule="evenodd"/>
	</g>
</svg>
